<?xml version="1.0" encoding="iso-8859-1"?>
<!-- Generator: Adobe Illustrator 19.0.0, SVG Export Plug-In . SVG Version: 6.00 Build 0)  -->
<svg version="1.1" xmlns="http://www.w3.org/2000/svg" xmlns:xlink="http://www.w3.org/1999/xlink" x="0px" y="0px"
	 viewBox="0 0 512 512" xml:space="preserve">
<g>
	<g>
		<path d="M504.5,416.831h-0.516V233.579c4.909-4.316,8.016-10.635,8.016-17.67c0-11.514-8.315-21.117-19.254-23.135l-27.257-40.886
			c3.982-4.217,6.431-9.896,6.431-16.14c0-12.976-10.557-23.532-23.532-23.532h-139.16l-39.735-27.814
			c-8.07-5.644-18.914-5.644-26.987,0.002l-80.164,56.114c-10.627,7.444-13.221,22.146-5.782,32.775
			c2.995,4.276,7.168,7.25,11.779,8.793v10.292H63.613c-12.976,0-23.532,10.556-23.532,23.532c0,6.244,2.449,11.923,6.431,16.14
			l-27.257,40.886C8.315,274.954,0,284.556,0,296.071c0,7.035,3.107,13.354,8.016,17.67v103.09H7.5c-4.142,0-7.5,3.357-7.5,7.5
			c0,4.142,3.358,7.5,7.5,7.5h497c4.142,0,7.5-3.358,7.5-7.5C512,420.188,508.642,416.831,504.5,416.831z M448.387,127.215v0.001
			c4.705,0,8.532,3.828,8.532,8.532c0,4.705-3.828,8.532-8.532,8.532H353.85c-1.218-1.389-2.615-2.658-4.193-3.764l-19.001-13.301
			H448.387z M63.613,207.377h104.726v17.064H63.613c-4.705,0-8.532-3.828-8.532-8.532S58.908,207.377,63.613,207.377z
			 M136.275,416.831h-0.001H55.081V351.67h81.194V416.831z M168.339,416.831h-17.064V344.17c0-4.143-3.358-7.5-7.5-7.5H47.581
			c-4.142,0-7.5,3.357-7.5,7.5v72.661H23.016V319.59c0.172,0.004,0.343,0.013,0.516,0.013h144.807V416.831z M272.548,416.831
			h-33.097V351.67h33.097V416.831z M328.66,416.831h-41.113V344.17c0.001-4.143-3.357-7.5-7.499-7.5h-48.097
			c-4.142,0-7.5,3.357-7.5,7.5v72.661h-41.113v-97.228h144.806c0.173,0,0.344-0.009,0.516-0.013V416.831z M328.145,304.604H23.532
			c-4.705,0-8.532-3.828-8.532-8.532c0-4.703,3.822-8.528,8.522-8.533c0.001,0,0.002,0,0.003,0c0.004,0,0.008,0,0.012,0H55.6
			c4.142,0,7.5-3.358,7.5-7.5c0-4.142-3.358-7.5-7.5-7.5H37.546l22.271-33.407c1.236,0.202,2.503,0.311,3.795,0.311h104.726v33.097
			h-80.68c-4.142,0-7.5,3.358-7.5,7.5c0,4.142,3.358,7.5,7.5,7.5h240.487c4.705,0,8.532,3.828,8.532,8.532
			C336.677,300.776,332.849,304.604,328.145,304.604z M304.097,224.444h-32.064c-4.142,0-7.5,3.358-7.5,7.5v40.595h-17.064v-40.595
			c0-4.142-3.358-7.5-7.5-7.5h-32.064c-4.142,0-7.5,3.358-7.5,7.5v40.595h-17.064v-90.444c2.084-0.699,4.104-1.697,5.995-3.018
			L256,132.409l66.668,46.669c1.863,1.303,3.881,2.306,5.993,3.017v90.457c-0.172-0.004-0.343-0.013-0.516-0.013h-16.548v-40.595
			C311.597,227.802,308.239,224.444,304.097,224.444z M296.596,239.443v33.095h-17.064v-33.095H296.596z M232.467,239.443v33.095
			h-17.064v-33.095H232.467z M336.145,168.328c-1.75,0-3.438-0.534-4.878-1.541l-70.966-49.678
			c-1.292-0.904-2.796-1.356-4.301-1.356s-3.01,0.452-4.301,1.356l-70.961,49.674c-3.86,2.696-9.194,1.756-11.89-2.094
			c-2.698-3.852-1.756-9.185,2.097-11.884l80.158-56.111c2.929-2.047,6.865-2.048,9.79-0.002l80.159,56.111
			c3.855,2.701,4.797,8.033,2.101,11.885C341.557,166.967,338.937,168.328,336.145,168.328z M488.984,416.831H343.661V313.74
			c4.909-4.316,8.016-10.635,8.016-17.67c0-7.035-3.107-13.354-8.016-17.67v-38.959h144.807c0.173,0,0.344-0.009,0.516-0.013
			V416.831z M488.468,224.442H343.661v-17.064l48.613,0.001c4.142,0,7.5-3.358,7.5-7.5c0-4.143-3.357-7.5-7.5-7.5l-48.614-0.001
			v-10.291c4.706-1.585,8.863-4.629,11.78-8.795c2.981-4.259,4.347-9.173,4.234-14.012h88.712c1.292,0,2.559-0.109,3.795-0.31
			l22.271,33.407h-10.036c-4.142,0-7.5,3.358-7.5,7.5c0,4.142,3.358,7.5,7.5,7.5h24.044c0.004,0,0.008,0,0.012,0
			c0.001,0,0.002,0,0.003,0c4.7,0.005,8.522,3.831,8.522,8.532C497,220.614,493.172,224.442,488.468,224.442z"/>
	</g>
</g>
<g>
	<g>
		<path d="M432.354,192.377h-8.015c-4.142,0-7.5,3.358-7.5,7.5c0,4.142,3.358,7.5,7.5,7.5h8.015c4.142,0,7.5-3.358,7.5-7.5
			C439.854,195.735,436.496,192.377,432.354,192.377z"/>
	</g>
</g>
<g>
	<g>
		<path d="M256,160.314c-12.976,0-23.532,10.557-23.532,23.532c0,12.976,10.557,23.533,23.532,23.533s23.532-10.557,23.532-23.533
			C279.532,170.871,268.976,160.314,256,160.314z M256,192.379c-4.705,0-8.532-3.828-8.532-8.533c0-4.704,3.828-8.532,8.532-8.532
			s8.532,3.828,8.532,8.532C264.532,188.552,260.705,192.379,256,192.379z"/>
	</g>
</g>
<g>
	<g>
		<path d="M400.291,336.67h-32.065c-4.142,0-7.5,3.357-7.5,7.5v48.097c0,4.142,3.358,7.5,7.5,7.5h32.065c4.142,0,7.5-3.358,7.5-7.5
			V344.17C407.791,340.027,404.433,336.67,400.291,336.67z M392.791,384.766h-17.065V351.67h17.065V384.766z"/>
	</g>
</g>
<g>
	<g>
		<path d="M464.419,336.67h-32.064c-4.142,0-7.5,3.357-7.5,7.5v48.097c0,4.142,3.358,7.5,7.5,7.5h32.064c4.142,0,7.5-3.358,7.5-7.5
			V344.17C471.919,340.027,468.562,336.67,464.419,336.67z M456.919,384.766h-17.064V351.67h17.064V384.766z"/>
	</g>
</g>
<g>
	<g>
		<path d="M400.291,256.508h-32.065c-4.142,0-7.5,3.358-7.5,7.5v48.097c0,4.142,3.358,7.5,7.5,7.5h32.065c4.142,0,7.5-3.358,7.5-7.5
			v-48.097C407.791,259.866,404.433,256.508,400.291,256.508z M392.791,304.605h-17.065v-33.097h17.065V304.605z"/>
	</g>
</g>
<g>
	<g>
		<path d="M464.419,256.508h-32.064c-4.142,0-7.5,3.358-7.5,7.5v48.097c0,4.142,3.358,7.5,7.5,7.5h32.064c4.142,0,7.5-3.358,7.5-7.5
			v-48.097C471.919,259.866,468.562,256.508,464.419,256.508z M456.919,304.605h-17.064v-33.097h17.064V304.605z"/>
	</g>
</g>
</svg>
