<?xml version="1.0"?>
<svg xmlns="http://www.w3.org/2000/svg"  viewBox="0 0 512.002 512.002"><g><g><g><path d="m474.638 310.806-41.939-88.671c-1.653-3.495-5.174-5.724-9.04-5.724h-335.315c-3.866 0-7.387 2.229-9.04 5.724l-41.939 88.671c-1.465 3.098-1.242 6.73.592 9.626 1.833 2.895 5.021 4.65 8.448 4.65h31.939v136.092c0 4.611 3.153 8.625 7.634 9.716l167.496 40.787c.724.19 1.604.325 2.571.325.653 0 1.757-.135 2.481-.324l167.499-40.788c4.48-1.091 7.634-5.105 7.634-9.716v-136.092h31.939c3.427 0 6.615-1.755 8.448-4.65 1.834-2.896 2.057-6.528.592-9.626zm-379.962-74.395h145.533l-32.479 68.671h-145.534zm318.982 216.905-147.657 35.956v-79.861c0-5.523-4.478-10-10-10s-10 4.477-10 10v79.861l-147.657-35.956v-128.234h115.718c3.866 0 7.387-2.229 9.04-5.724l22.899-48.415v48.057c0 5.523 4.478 10 10 10s10-4.477 10-10v-48.057l22.899 48.415c1.653 3.495 5.174 5.724 9.04 5.724h115.718zm-109.385-148.234-32.479-68.671h145.533l32.479 68.671z" fill="#FFFFFF"/><path d="m247.812 174.742c1.871 2.671 4.928 4.262 8.189 4.262s6.318-1.591 8.189-4.262l72.826-103.942c2.141-3.055 2.403-7.046.682-10.354s-5.142-5.384-8.871-5.384h-31.492v-45.062c0-5.523-4.478-10-10-10h-62.666c-5.522 0-10 4.477-10 10v45.062h-31.492c-3.729 0-7.149 2.075-8.871 5.384s-1.459 7.3.682 10.354zm-23.144-99.68c5.522 0 10-4.477 10-10v-45.062h42.666v45.062c0 5.523 4.478 10 10 10h22.275l-53.608 76.515-53.608-76.515z" data-original="#000000" class="active-path" data-old_color="#000000" fill="#FFFFFF"/><path d="m265.231 360.56c-1.635-3.926-5.689-6.456-9.941-6.148-4.152.301-7.752 3.235-8.898 7.234-1.147 4 .389 8.455 3.788 10.869 3.371 2.393 7.925 2.464 11.372.185 3.947-2.611 5.462-7.789 3.679-12.14z" data-original="#000000" class="active-path" data-old_color="#000000" fill="#FFFFFF"/></g></g></g> </svg>
